<svg
      width="53"
      height="21"
      viewBox="0 0 53 21"
      fill="none"
      xmlns="http://www.w3.org/2000/svg"
    >
      <path
        d="M4.384 15.424C4.384 14.9547 4.49067 14.56 4.704 14.24C4.93867 13.92 5.28 13.6747 5.728 13.504C6.176 13.312 6.76267 13.216 7.488 13.216C8.32 13.216 9.10933 13.3227 9.856 13.536C10.6027 13.7493 11.3067 14.0907 11.968 14.56V12.8C11.776 12.5653 11.4453 12.3093 10.976 12.032C10.5067 11.7333 9.90933 11.4773 9.184 11.264C8.48 11.0507 7.63733 10.944 6.656 10.944C4.82133 10.944 3.40267 11.3707 2.4 12.224C1.39733 13.056 0.896 14.1867 0.896 15.616C0.896 16.6187 1.13067 17.472 1.6 18.176C2.06933 18.88 2.69867 19.4133 3.488 19.776C4.27733 20.1387 5.13067 20.32 6.048 20.32C6.90133 20.32 7.73333 20.1707 8.544 19.872C9.376 19.552 10.0587 19.0827 10.592 18.464C11.1467 17.824 11.424 17.0347 11.424 16.096L10.912 14.176C10.912 14.9013 10.7307 15.5413 10.368 16.096C10.0267 16.6293 9.568 17.0347 8.992 17.312C8.43733 17.5893 7.81867 17.728 7.136 17.728C6.60267 17.728 6.12267 17.6427 5.696 17.472C5.29067 17.3013 4.97067 17.0453 4.736 16.704C4.50133 16.3413 4.384 15.9147 4.384 15.424ZM3.296 9.12C3.50933 8.97067 3.82933 8.78933 4.256 8.576C4.704 8.34133 5.22667 8.14933 5.824 8C6.44267 7.82933 7.09333 7.744 7.776 7.744C8.224 7.744 8.64 7.78667 9.024 7.872C9.408 7.95733 9.73867 8.096 10.016 8.288C10.2933 8.48 10.5067 8.72533 10.656 9.024C10.8267 9.32267 10.912 9.70667 10.912 10.176V20H14.304V9.504C14.304 8.52267 14.0373 7.70133 13.504 7.04C12.9707 6.35733 12.2347 5.83467 11.296 5.472C10.3787 5.10933 9.312 4.928 8.096 4.928C6.73067 4.928 5.51467 5.12 4.448 5.504C3.40267 5.888 2.54933 6.28267 1.888 6.688L3.296 9.12ZM16.285 5.28V8.32H24.637V5.28H16.285ZM18.749 0.16V20H22.173V0.16H18.749ZM30.4445 5.28H27.0205V20H30.4445V5.28ZM34.8285 8.96L36.4925 6.048C36.1725 5.64267 35.7778 5.36533 35.3085 5.216C34.8392 5.04533 34.3378 4.96 33.8045 4.96C33.0578 4.96 32.3325 5.22667 31.6285 5.76C30.9458 6.29333 30.3805 7.01867 29.9325 7.936C29.5058 8.832 29.2925 9.86667 29.2925 11.04L30.4445 11.712C30.4445 11.008 30.5192 10.4 30.6685 9.888C30.8392 9.35467 31.1058 8.93867 31.4685 8.64C31.8312 8.34133 32.3005 8.192 32.8765 8.192C33.3032 8.192 33.6552 8.256 33.9325 8.384C34.2098 8.512 34.5085 8.704 34.8285 8.96ZM44.7955 20.32C46.5022 20.32 47.9635 19.9893 49.1795 19.328C50.3955 18.6667 51.3875 17.6747 52.1555 16.352L49.1795 15.136C48.7102 15.9253 48.1235 16.512 47.4195 16.896C46.7155 17.28 45.8942 17.472 44.9555 17.472C44.0595 17.472 43.2915 17.28 42.6515 16.896C42.0328 16.512 41.5635 15.9573 41.2435 15.232C40.9235 14.4853 40.7635 13.5787 40.7635 12.512C40.7848 11.4453 40.9555 10.5493 41.2755 9.824C41.5955 9.09867 42.0648 8.544 42.6835 8.16C43.3022 7.776 44.0488 7.584 44.9235 7.584C45.6488 7.584 46.2782 7.744 46.8115 8.064C47.3662 8.384 47.7928 8.832 48.0915 9.408C48.4115 9.984 48.5715 10.6667 48.5715 11.456C48.5715 11.6053 48.5288 11.7973 48.4435 12.032C48.3795 12.2453 48.3155 12.416 48.2515 12.544L49.3075 11.072H39.3235V13.44H52.2515C52.2728 13.3547 52.2835 13.216 52.2835 13.024C52.3048 12.832 52.3155 12.6507 52.3155 12.48C52.3155 10.9013 52.0168 9.55733 51.4195 8.448C50.8435 7.31733 50.0115 6.45333 48.9235 5.856C47.8355 5.25867 46.5128 4.96 44.9555 4.96C43.3982 4.96 42.0435 5.28 40.8915 5.92C39.7395 6.53867 38.8435 7.424 38.2035 8.576C37.5848 9.728 37.2755 11.0827 37.2755 12.64C37.2755 14.176 37.5848 15.52 38.2035 16.672C38.8222 17.824 39.6968 18.72 40.8275 19.36C41.9795 20 43.3022 20.32 44.7955 20.32Z"
        fill="#4DB648"
      />
    </svg>