<svg width="1007" height="1007" viewBox="0 0 1007 1007" fill="none" xmlns="http://www.w3.org/2000/svg">
<path d="M859.25 859.25C767.551 950.949 643.986 1003.7 514.335 1006.49C384.684 1009.28 258.961 961.904 163.399 874.239C67.8371 786.574 9.8166 665.395 1.44337 535.984C-6.9299 406.574 34.9909 278.928 118.459 179.679C201.928 80.4309 320.496 17.246 449.426 3.30789C578.356 -10.6302 707.689 25.755 810.44 104.872C913.19 183.989 981.422 299.727 1000.9 427.937C1020.38 556.147 989.595 686.927 914.976 792.989L897.602 780.767C969.071 679.182 998.553 553.925 979.899 431.127C961.244 308.33 895.893 197.479 797.48 121.703C699.068 45.9261 575.196 11.0771 451.709 24.4268C328.223 37.7764 214.66 98.2935 134.716 193.352C54.7721 288.41 14.6213 410.666 22.641 534.613C30.6607 658.56 86.2315 774.623 177.759 858.586C269.286 942.549 389.7 987.928 513.877 985.253C638.055 982.578 756.403 932.057 844.23 844.23L859.25 859.25Z" fill="#D7D7D7" fill-opacity="0.12"/>
<path d="M809.348 188.853C890.451 267.689 937.981 374.797 942.02 487.83C946.059 600.864 906.296 711.091 831.026 795.514C755.756 879.938 650.794 932.036 538.039 940.938C425.285 949.841 313.447 914.861 225.861 843.296C138.275 771.732 81.7051 669.11 67.9552 556.844C54.2053 444.577 84.3371 331.337 152.064 240.75C219.79 150.164 319.88 89.2276 431.451 70.656C543.021 52.0845 657.454 77.312 750.873 141.075L740.428 156.377C650.954 95.3063 541.353 71.1439 434.493 88.9314C327.633 106.719 231.769 165.082 166.902 251.844C102.035 338.606 73.1752 447.065 86.3446 554.592C99.514 662.118 153.695 760.407 237.583 828.95C321.472 897.493 428.587 930.996 536.581 922.469C644.575 913.942 745.105 864.044 817.197 783.185C889.289 702.326 927.374 596.753 923.505 488.492C919.637 380.231 874.114 277.645 796.434 202.138L809.348 188.853Z" fill="#D7D7D7" fill-opacity="0.12"/>
<path d="M144.848 407.399C169.619 314.952 229.131 235.641 310.967 186.013C392.802 136.385 490.641 120.274 584.069 141.041C677.497 161.808 759.297 217.85 812.403 297.473C865.509 377.095 885.818 474.149 869.093 568.385C852.369 662.62 799.902 746.758 722.64 803.243C645.378 859.729 549.288 884.198 454.42 871.547C359.552 858.896 273.233 810.101 213.473 735.343C153.713 660.585 125.128 565.638 133.682 470.313L149.297 471.714C141.103 563.015 168.481 653.952 225.718 725.554C282.955 797.156 365.63 843.891 456.492 856.008C547.355 868.125 639.387 844.688 713.387 790.588C787.387 736.487 837.639 655.902 853.657 565.645C869.676 475.389 850.224 382.432 799.361 306.171C748.497 229.91 670.15 176.235 580.667 156.345C491.184 136.455 397.476 151.885 319.096 199.418C240.715 246.951 183.716 322.913 159.991 411.457L144.848 407.399Z" fill="#D7D7D7" fill-opacity="0.12"/>
<path d="M503.501 207.841C579.71 207.84 652.976 237.268 708.012 289.983C763.049 342.698 795.604 414.629 798.886 490.768C802.167 566.907 775.922 641.372 725.626 698.628C675.329 755.883 604.867 791.505 528.94 798.063C453.013 804.62 377.487 781.606 318.119 733.822C258.751 686.037 220.127 617.174 210.307 541.6C200.486 466.026 220.226 389.579 265.41 328.208C310.593 266.838 377.729 225.284 452.81 212.218L454.95 224.517C383.039 237.031 318.738 276.83 275.462 335.609C232.187 394.389 213.279 467.608 222.686 539.992C232.092 612.375 269.085 678.33 325.946 724.097C382.807 769.864 455.145 791.906 527.866 785.626C600.587 779.345 668.075 745.227 716.247 690.389C764.42 635.551 789.557 564.23 786.414 491.306C783.271 418.382 752.09 349.488 699.378 298.998C646.665 248.509 576.492 220.324 503.501 220.324L503.501 207.841Z" fill="#D7D7D7" fill-opacity="0.12"/>
</svg>
